<svg width="17" height="17" viewBox="0 0 17 17" fill="none" xmlns="http://www.w3.org/2000/svg">
<path d="M7.70801 7.70837V4.54171H9.29134V7.70837H12.458V9.29171H9.29134V12.4584H7.70801V9.29171H4.54134V7.70837H7.70801ZM8.49967 16.4167C4.1273 16.4167 0.583008 12.8724 0.583008 8.50004C0.583008 4.12767 4.1273 0.583374 8.49967 0.583374C12.872 0.583374 16.4163 4.12767 16.4163 8.50004C16.4163 12.8724 12.872 16.4167 8.49967 16.4167ZM8.49967 14.8334C10.1794 14.8334 11.7903 14.1661 12.978 12.9784C14.1657 11.7907 14.833 10.1797 14.833 8.50004C14.833 6.82034 14.1657 5.20943 12.978 4.0217C11.7903 2.83397 10.1794 2.16671 8.49967 2.16671C6.81997 2.16671 5.20906 2.83397 4.02133 4.0217C2.8336 5.20943 2.16634 6.82034 2.16634 8.50004C2.16634 10.1797 2.8336 11.7907 4.02133 12.9784C5.20906 14.1661 6.81997 14.8334 8.49967 14.8334Z" fill="url(#paint0_linear_1_2230)"/>
<defs>
<linearGradient id="paint0_linear_1_2230" x1="8.49967" y1="0.583374" x2="8.49967" y2="16.4167" gradientUnits="userSpaceOnUse">
<stop stop-color="#38BC4D"/>
<stop offset="1" stop-color="#15A99E"/>
</linearGradient>
</defs>
</svg>
