<svg width="10" height="17" viewBox="0 0 10 17" fill="none" xmlns="http://www.w3.org/2000/svg">
<path d="M9.15732 1.36708C9.0654 1.27493 8.95619 1.20181 8.83597 1.15192C8.71575 1.10203 8.58686 1.07635 8.45669 1.07635C8.32653 1.07635 8.19764 1.10203 8.07742 1.15192C7.95719 1.20181 7.84799 1.27493 7.75607 1.36708L1.17732 7.94583C1.10393 8.01907 1.0457 8.10607 1.00598 8.20184C0.96625 8.29761 0.945801 8.40027 0.945801 8.50396C0.945801 8.60764 0.96625 8.71031 1.00598 8.80608C1.0457 8.90185 1.10393 8.98884 1.17732 9.06208L7.75607 15.6408C8.14399 16.0287 8.7694 16.0287 9.15732 15.6408C9.54524 15.2529 9.54524 14.6275 9.15732 14.2396L3.42565 8.5L9.16524 2.76042C9.54524 2.38042 9.54524 1.74708 9.15732 1.36708Z" fill="#1E232C" stroke="#1E232C" stroke-width="0.2"/>
</svg>
