<svg width="20" height="20" viewBox="0 0 20 20" fill="none" xmlns="http://www.w3.org/2000/svg">
<g clip-path="url(#clip0_1_2868)">
<path d="M1.66663 9.16666H18.3333V16.6667C18.3333 16.8877 18.2455 17.0996 18.0892 17.2559C17.9329 17.4122 17.721 17.5 17.5 17.5H2.49996C2.27895 17.5 2.06698 17.4122 1.9107 17.2559C1.75442 17.0996 1.66663 16.8877 1.66663 16.6667V9.16666ZM14.1666 2.49999H17.5C17.721 2.49999 17.9329 2.58779 18.0892 2.74407C18.2455 2.90035 18.3333 3.11231 18.3333 3.33333V7.49999H1.66663V3.33333C1.66663 3.11231 1.75442 2.90035 1.9107 2.74407C2.06698 2.58779 2.27895 2.49999 2.49996 2.49999H5.83329V0.833328H7.49996V2.49999H12.5V0.833328H14.1666V2.49999Z" fill="#9B9B9B"/>
</g>
<defs>
<clipPath id="clip0_1_2868">
<rect width="20" height="20" fill="white"/>
</clipPath>
</defs>
</svg>
