<svg width="29" height="26" viewBox="0 0 29 26" fill="none" xmlns="http://www.w3.org/2000/svg">
<g clip-path="url(#clip0_1_231)">
<path d="M8.98021 25.5133C8.42268 25.1723 7.92856 24.7509 7.51682 24.2653C7.06392 23.7641 6.64429 23.2383 6.26022 22.6907C5.35894 21.4767 4.65212 20.1498 4.16147 18.7509C3.57205 17.1259 3.28662 15.5683 3.28662 14.0449C3.28662 12.3435 3.68693 10.8583 4.46988 9.61025C5.05026 8.6348 5.90358 7.81965 6.94155 7.24913C7.94745 6.67467 9.10325 6.36029 10.2872 6.33913C10.7016 6.33913 11.1479 6.39438 11.6215 6.5C11.9618 6.58857 12.3762 6.72832 12.8826 6.90219C13.5268 7.1305 13.8811 7.27025 14.0013 7.30438C14.3786 7.43113 14.6959 7.48638 14.9451 7.48638C15.1342 7.48638 15.4011 7.43113 15.7042 7.34663C15.8747 7.29138 16.1964 7.19388 16.6568 7.01269C17.1128 6.85994 17.4715 6.72913 17.757 6.63163C18.1944 6.513 18.6177 6.40332 18.995 6.34807C19.4424 6.28322 19.8963 6.26605 20.3479 6.29688C21.1305 6.34391 21.9014 6.49639 22.6358 6.74944C23.8367 7.19388 24.8079 7.88775 25.5308 8.87413C25.2252 9.04727 24.9385 9.24698 24.6745 9.4705C24.0997 9.93897 23.6102 10.4889 23.2243 11.0996C22.72 11.9341 22.4586 12.8741 22.4652 13.8288C22.4838 15.0012 22.8108 16.0339 23.455 16.9268C23.9286 17.5886 24.5441 18.1545 25.2639 18.59C25.6324 18.8183 25.9496 18.9751 26.2536 19.0808C26.1113 19.487 25.9593 19.8803 25.78 20.2703C25.3731 21.1448 24.88 21.9833 24.3069 22.7752C23.7961 23.4569 23.3958 23.9647 23.0918 24.3027C22.6181 24.8186 22.1621 25.2127 21.7017 25.4873C21.1954 25.7961 20.5971 25.961 19.9892 25.961C19.5774 25.9755 19.1658 25.9297 18.7697 25.8253C18.4295 25.7197 18.0928 25.6051 17.7614 25.4743C17.4169 25.3288 17.0616 25.2058 16.6983 25.1063C15.8002 24.8942 14.8586 24.8928 13.9598 25.1022C13.5913 25.1997 13.2369 25.3134 12.887 25.4532C12.3948 25.6433 12.0678 25.7709 11.8787 25.8253C11.5014 25.9269 11.1099 25.9903 10.714 26.0114C10.1016 26.0114 9.53074 25.8505 8.96518 25.5247L8.98021 25.5133ZM17.0571 5.51363C16.2565 5.88169 15.4921 6.0385 14.733 5.98732C14.6137 5.2845 14.733 4.56544 15.0502 3.77813C15.3203 3.11112 15.7194 2.49453 16.2282 1.95813C16.7655 1.39346 17.4175 0.930622 18.1476 0.595566C18.9252 0.227504 19.6666 0.0284413 20.3753 -0.000808716C20.4672 0.735316 20.3753 1.45925 20.0811 2.24169C19.8087 2.93336 19.4104 3.57738 18.9031 4.14619C18.3853 4.71163 17.7499 5.17627 17.0341 5.51282L17.0571 5.51363Z" fill="black"/>
</g>
<defs>
<clipPath id="clip0_1_231">
<rect width="28.2779" height="26" fill="white" transform="translate(0.640137)"/>
</clipPath>
</defs>
</svg>
