<svg width="21" height="20" viewBox="0 0 21 20" fill="none" xmlns="http://www.w3.org/2000/svg">
<path d="M3.01464 6.84801C3.37497 2.618 7.07231 -0.0766703 10.5816 0.00166311C12.5087 0.0486632 14.185 0.706664 15.595 2.007C16.9893 3.30734 17.757 4.93667 17.9607 6.84801C18.1487 6.86367 18.3053 6.86367 18.462 6.89501C19.966 7.09867 21 8.27368 21 9.79335C21 10.373 21 10.937 21 11.5167C20.9843 13.0834 19.7467 14.321 18.18 14.3524C17.9293 14.3524 17.6943 14.3524 17.4437 14.3524C16.864 14.3524 16.6447 14.133 16.6447 13.5534C16.6447 11.689 16.676 9.84035 16.629 7.97601C16.6133 7.13001 16.5507 6.25267 16.3 5.46934C15.4227 2.712 12.7437 1.067 9.71998 1.36467C7.07231 1.61533 4.78497 3.85567 4.40897 6.56601C4.36197 6.91067 4.34631 7.27101 4.34631 7.63134C4.34631 9.57401 4.34631 11.5167 4.34631 13.4594C4.34631 14.1174 4.20531 14.3054 3.56297 14.368C1.1503 14.5874 -0.103036 12.9267 0.00663115 11.2347C0.0379645 10.749 0.00663115 10.2477 0.00663115 9.76201C0.0222978 8.21101 1.16597 7.00467 2.7013 6.87934C2.7953 6.86367 2.90497 6.84801 3.01464 6.84801Z" fill="#1BD15D"/>
<path d="M10.4721 19.773C10.1431 19.773 9.8141 19.8043 9.4851 19.773C8.81144 19.679 8.32577 19.068 8.37277 18.4257C8.41977 17.752 8.93677 17.2193 9.6261 17.188C10.2058 17.1723 10.8011 17.1567 11.3808 17.188C12.0544 17.2193 12.5871 17.7677 12.6184 18.4257C12.6498 19.068 12.1954 19.6633 11.5374 19.7573C11.1928 19.8043 10.8324 19.8044 10.4721 19.82C10.4721 19.8044 10.4721 19.7887 10.4721 19.773Z" fill="#1BD15D"/>
<path d="M2.81079 15.1044C3.03012 15.1044 3.23379 15.1044 3.48446 15.1044C4.09546 17.1724 5.48979 18.1594 7.63613 18.1124C7.63613 18.363 7.63613 18.5824 7.63613 18.786C5.19213 19.162 2.95179 17.1097 2.81079 15.1044Z" fill="#1BD15D"/>
</svg>
