<svg width="29" height="26" viewBox="0 0 29 26" fill="none" xmlns="http://www.w3.org/2000/svg">
<path d="M7.42334 15.4656L6.52851 18.537L3.25791 18.6007C2.28049 16.9338 1.72607 15.0267 1.72607 13C1.72607 11.0403 2.24444 9.19223 3.16327 7.56497H3.16397L6.07572 8.0558L7.35124 10.7169C7.08427 11.4325 6.93877 12.2007 6.93877 13C6.93887 13.8676 7.10978 14.6988 7.42334 15.4656Z" fill="#FBBB00"/>
<path d="M27.2088 10.7922C27.3564 11.5071 27.4333 12.2454 27.4333 13C27.4333 13.8461 27.3366 14.6714 27.1523 15.4675C26.5266 18.1766 24.8916 20.5422 22.6267 22.2162L22.626 22.2156L18.9585 22.0435L18.4394 19.0643C19.9423 18.2539 21.1168 16.9857 21.7355 15.4675H14.8623V10.7922H21.8357H27.2088Z" fill="#518EF8"/>
<path d="M22.6258 22.2156L22.6265 22.2163C20.4238 23.8442 17.6256 24.8182 14.5796 24.8182C9.68462 24.8182 5.42882 22.3026 3.25781 18.6007L7.42324 15.4656C8.50871 18.1293 11.3033 20.0254 14.5796 20.0254C15.9878 20.0254 17.3071 19.6754 18.4392 19.0643L22.6258 22.2156Z" fill="#28B446"/>
<path d="M22.7839 3.90259L18.6199 7.03699C17.4483 6.36363 16.0633 5.97465 14.5795 5.97465C11.2291 5.97465 8.38221 7.95775 7.3511 10.7169L3.16379 7.56493H3.16309C5.30231 3.77273 9.61178 1.18182 14.5795 1.18182C17.6983 1.18182 20.5578 2.20327 22.7839 3.90259Z" fill="#F14336"/>
</svg>
