<svg width="360" height="23" viewBox="0 0 360 23" fill="none" xmlns="http://www.w3.org/2000/svg">
<path d="M143.092 13.914C143.773 13.214 144.114 12.29 144.114 11.142C144.114 9.994 143.773 9.07467 143.092 8.384C142.411 7.684 141.538 7.334 140.474 7.334C139.419 7.334 138.547 7.684 137.856 8.384C137.175 9.07467 136.834 9.994 136.834 11.142C136.834 12.29 137.179 13.214 137.87 13.914C138.561 14.614 139.433 14.964 140.488 14.964C141.543 14.964 142.411 14.614 143.092 13.914ZM140.488 16.098C139.097 16.098 137.926 15.6313 136.974 14.698C136.022 13.7553 135.546 12.57 135.546 11.142C135.546 9.70467 136.022 8.524 136.974 7.6C137.926 6.66667 139.097 6.2 140.488 6.2C141.879 6.2 143.045 6.66667 143.988 7.6C144.94 8.524 145.416 9.70467 145.416 11.142C145.416 12.5793 144.94 13.7647 143.988 14.698C143.045 15.6313 141.879 16.098 140.488 16.098ZM148.275 8.314V9.616C148.733 8.664 149.512 8.188 150.613 8.188V9.518H150.277C149.624 9.518 149.125 9.69067 148.779 10.036C148.443 10.372 148.275 10.96 148.275 11.8V16H147.001V8.314H148.275ZM156.353 6.298H157.627V15.02H161.029V16H156.353V6.298ZM165.631 15.076C166.349 15.076 166.97 14.8193 167.493 14.306C168.025 13.7833 168.291 13.0647 168.291 12.15C168.291 11.2353 168.039 10.5213 167.535 10.008C167.031 9.49467 166.415 9.238 165.687 9.238C164.968 9.238 164.366 9.49467 163.881 10.008C163.395 10.5213 163.153 11.24 163.153 12.164C163.153 13.0787 163.386 13.7927 163.853 14.306C164.319 14.8193 164.912 15.076 165.631 15.076ZM162.901 15.034C162.201 14.306 161.851 13.3493 161.851 12.164C161.851 10.9787 162.219 10.022 162.957 9.294C163.694 8.55667 164.618 8.188 165.729 8.188C166.839 8.188 167.763 8.55667 168.501 9.294C169.238 10.022 169.607 10.9787 169.607 12.164C169.607 13.34 169.219 14.2967 168.445 15.034C167.679 15.762 166.741 16.126 165.631 16.126C164.52 16.126 163.61 15.762 162.901 15.034ZM174.364 16.126C173.319 16.126 172.446 15.7527 171.746 15.006C171.046 14.25 170.696 13.2887 170.696 12.122C170.696 10.946 171.042 9.99867 171.732 9.28C172.432 8.552 173.31 8.188 174.364 8.188C175.018 8.188 175.587 8.342 176.072 8.65C176.567 8.958 176.94 9.35933 177.192 9.854V8.314H178.48V16.196C178.48 17.2507 178.14 18.1093 177.458 18.772C176.777 19.444 175.914 19.78 174.868 19.78C173.823 19.78 172.955 19.5373 172.264 19.052C171.583 18.5667 171.196 17.932 171.102 17.148H172.348C172.47 17.5867 172.754 17.9507 173.202 18.24C173.65 18.5293 174.206 18.674 174.868 18.674C175.531 18.674 176.082 18.4547 176.52 18.016C176.968 17.5867 177.192 16.98 177.192 16.196V14.432C176.94 14.936 176.567 15.3467 176.072 15.664C175.587 15.972 175.018 16.126 174.364 16.126ZM176.422 14.25C176.936 13.7273 177.192 13.032 177.192 12.164C177.192 11.296 176.936 10.6007 176.422 10.078C175.918 9.55533 175.307 9.294 174.588 9.294C173.879 9.294 173.268 9.546 172.754 10.05C172.25 10.554 171.998 11.24 171.998 12.108C171.998 12.976 172.255 13.6807 172.768 14.222C173.282 14.7633 173.893 15.034 174.602 15.034C175.312 15.034 175.918 14.7727 176.422 14.25ZM181.839 6.83C181.671 6.998 181.466 7.082 181.223 7.082C180.981 7.082 180.775 6.998 180.607 6.83C180.449 6.662 180.369 6.45667 180.369 6.214C180.369 5.97133 180.453 5.766 180.621 5.598C180.789 5.43 180.99 5.346 181.223 5.346C181.466 5.346 181.671 5.43 181.839 5.598C182.007 5.766 182.091 5.97133 182.091 6.214C182.091 6.45667 182.007 6.662 181.839 6.83ZM180.579 16V8.314H181.853V16H180.579ZM185.23 8.314V9.56C185.753 8.64533 186.588 8.188 187.736 8.188C188.586 8.188 189.295 8.47267 189.864 9.042C190.434 9.602 190.718 10.4047 190.718 11.45V16H189.458V11.66C189.458 10.8853 189.272 10.2973 188.898 9.896C188.525 9.49467 188.007 9.294 187.344 9.294C186.691 9.294 186.173 9.49467 185.79 9.896C185.417 10.2973 185.23 10.8853 185.23 11.66V16H183.956V8.314H185.23ZM205.751 8.314H207.039L204.617 16H203.301L201.565 9.896L199.829 16H198.499L196.063 8.314H197.379L199.157 14.726L200.963 8.314H202.279L203.987 14.74L205.751 8.314ZM209.511 6.83C209.343 6.998 209.138 7.082 208.895 7.082C208.653 7.082 208.447 6.998 208.279 6.83C208.121 6.662 208.041 6.45667 208.041 6.214C208.041 5.97133 208.125 5.766 208.293 5.598C208.461 5.43 208.662 5.346 208.895 5.346C209.138 5.346 209.343 5.43 209.511 5.598C209.679 5.766 209.763 5.97133 209.763 6.214C209.763 6.45667 209.679 6.662 209.511 6.83ZM208.251 16V8.314H209.525V16H208.251ZM214.148 14.964H215.198V16H213.91C212.575 16 211.908 15.342 211.908 14.026V9.35H210.914V8.314H211.908V6.41H213.196V8.314H215.184V9.35H213.196V14.026C213.196 14.3713 213.266 14.614 213.406 14.754C213.546 14.894 213.793 14.964 214.148 14.964ZM217.879 5.64V9.56C218.401 8.64533 219.237 8.188 220.385 8.188C221.234 8.188 221.943 8.47267 222.513 9.042C223.082 9.602 223.367 10.4047 223.367 11.45V16H222.107V11.66C222.107 10.8853 221.92 10.2973 221.547 9.896C221.173 9.49467 220.655 9.294 219.993 9.294C219.339 9.294 218.821 9.49467 218.439 9.896C218.065 10.2973 217.879 10.8853 217.879 11.66V16H216.605V5.64H217.879Z" fill="#6A707C"/>
<line x1="4.37114e-08" y1="11.5" x2="121.813" y2="11.5" stroke="#5B5B5B" stroke-opacity="0.29"/>
<line x1="239.275" y1="11.5" x2="360" y2="11.5" stroke="#5B5B5B" stroke-opacity="0.29"/>
</svg>
