<svg width="22" height="16" viewBox="0 0 22 16" fill="none" xmlns="http://www.w3.org/2000/svg">
<path d="M21.138 8.00608C21.138 10.0516 21.138 12.0719 21.138 14.1175C21.138 14.9256 20.7087 15.5822 19.9763 15.86C19.1935 16.1631 18.2591 15.961 17.7287 15.3802C17.4004 15.0266 17.2742 14.5973 17.2742 14.1428C17.2742 10.0516 17.2742 5.93527 17.2742 1.84416C17.2742 0.707738 18.0823 -0.0246208 19.2692 0.000632992C20.3804 0.0258868 21.138 0.758247 21.138 1.86941C21.1633 3.88972 21.138 5.96053 21.138 8.00608Z" fill="#9B9B9B"/>
<path d="M11.4146 10.0265C11.4146 8.71325 11.4146 7.42531 11.4146 6.11211C11.4146 4.89993 12.1469 4.16757 13.3338 4.16757C14.546 4.16757 15.2784 4.89993 15.2784 6.11211C15.2784 8.73851 15.2784 11.3902 15.2784 14.0166C15.2784 15.2035 14.5208 15.9611 13.3591 15.9611C12.1974 15.9611 11.4398 15.2035 11.4146 14.0166C11.4146 12.7034 11.4146 11.3649 11.4146 10.0265Z" fill="#9B9B9B"/>
<path d="M5.53076 11.5669C5.53076 10.7083 5.53076 9.87491 5.53076 9.01628C5.53076 7.95562 6.26312 7.19801 7.29853 7.17275C8.48546 7.12225 9.34408 7.75359 9.36934 8.86476C9.41984 10.683 9.41984 12.5013 9.36934 14.2943C9.34408 15.3802 8.4602 16.0368 7.29853 15.9863C6.28838 15.9358 5.55602 15.1782 5.53076 14.1428C5.53076 13.2589 5.53076 12.4255 5.53076 11.5669Z" fill="#9B9B9B"/>
<path d="M0.0252544 12.6022C0.0252544 12.1224 0.0252544 11.6426 0.0252544 11.1628C0.0252544 10.1021 0.782868 9.31925 1.81827 9.294C3.03046 9.26874 3.83858 9.9506 3.86383 11.0618C3.88908 12.1224 3.91434 13.1831 3.86383 14.2437C3.81332 15.3297 2.97995 16.0115 1.81827 15.9863C0.757614 15.961 0.0252538 15.2034 0 14.1427C0 13.6124 0.0252544 13.1073 0.0252544 12.6022Z" fill="#9B9B9B"/>
</svg>
