<svg width="24" height="25" viewBox="0 0 24 25" fill="none" xmlns="http://www.w3.org/2000/svg">
<path d="M11.6231 16.5732C11.6926 16.5655 11.8238 16.5554 11.9676 16.5461L12.5 16.5115V17.045V20.4999C12.5 20.4999 12.5 20.5 12.5 20.5C12.5 20.5988 12.5294 20.6954 12.5843 20.7776C12.6392 20.8598 12.7173 20.9239 12.8087 20.9617C12.9 20.9996 13.0005 21.0095 13.0975 20.9902C13.1945 20.9709 13.2835 20.9233 13.3534 20.8534L11.6231 16.5732ZM11.6231 16.5732C10.0425 16.6964 8.50208 17.1327 7.09159 17.8568C5.6783 18.5824 4.42377 19.5823 3.40132 20.7982L3.39658 20.8038L3.392 20.8096C3.32757 20.891 3.23942 20.9503 3.13976 20.9793C3.04011 21.0083 2.9339 21.0056 2.83586 20.9715C2.73782 20.9375 2.65282 20.8737 2.59264 20.7892C2.53249 20.7046 2.50011 20.6035 2.5 20.4998V19.0003C2.5032 16.3816 3.48346 13.8582 5.24897 11.9241C7.01455 9.98993 9.43836 8.78419 12.0461 8.54287L12.5 8.50087V8.045V4.50011M11.6231 16.5732L12.5 4.50011M21.3534 12.1465L21.3534 12.1466C21.4471 12.2403 21.4998 12.3674 21.4998 12.5C21.4998 12.6326 21.4471 12.7597 21.3534 12.8534C21.3534 12.8535 21.3534 12.8535 21.3534 12.8535L13.3535 20.8534L12.1686 3.94454C12.2785 3.78013 12.4346 3.65199 12.6173 3.57632C12.8 3.50065 13.0011 3.48085 13.195 3.51942C13.389 3.55798 13.5671 3.65319 13.707 3.793L21.707 11.793L21.3534 12.1465ZM21.3534 12.1465L13.3535 4.14661C13.3535 4.14659 13.3535 4.14657 13.3534 4.14655C13.2835 4.07668 13.1945 4.02909 13.0975 4.00982C13.0005 3.99053 12.9 4.00043 12.8087 4.03827C12.7173 4.0761 12.6392 4.14017 12.5843 4.22238C12.5294 4.30455 12.5 4.40116 12.5 4.5C12.5 4.50004 12.5 4.50007 12.5 4.50011M21.3534 12.1465L12.5 4.50011M13.5 18.086V19.2931L14.3536 18.4396L19.9396 12.8536L20.2931 12.5L19.9396 12.1464L14.3536 6.56045L13.5 5.70689V6.914V9C13.5 9.13261 13.4473 9.25979 13.3536 9.35355C13.2598 9.44732 13.1326 9.5 13 9.5L12.9994 9.5C10.6576 9.50301 8.39914 10.3697 6.65654 11.9341C4.91393 13.4985 3.80959 15.6507 3.55496 17.9786L3.42533 19.1638L4.36157 18.4256C6.4111 16.8098 8.88496 15.8224 11.4839 15.5829L11.4936 15.582L11.5032 15.5807C11.7395 15.5496 12.7568 15.5 13 15.5C13.1326 15.5 13.2598 15.5527 13.3536 15.6464C13.4473 15.7402 13.5 15.8674 13.5 16V18.086Z" fill="black" stroke="#636363"/>
</svg>
