<svg width="18" height="18" viewBox="0 0 18 18" fill="none" xmlns="http://www.w3.org/2000/svg">
<circle cx="9" cy="9" r="4.5" fill="white"/>
<path fill-rule="evenodd" clip-rule="evenodd" d="M5.64022 3.1095C6.21916 3.06328 6.76874 2.83557 7.21072 2.4588C7.70992 2.03363 8.34421 1.80013 8.99992 1.80013C9.65564 1.80013 10.2899 2.03363 10.7891 2.4588C11.2311 2.83557 11.7807 3.06328 12.3596 3.1095C13.0134 3.16175 13.6272 3.44517 14.091 3.90894C14.5548 4.37271 14.8382 4.98651 14.8904 5.6403C14.9363 6.219 15.164 6.7689 15.5411 7.2108C15.9663 7.70999 16.1998 8.34428 16.1998 9C16.1998 9.65571 15.9663 10.29 15.5411 10.7892C15.1644 11.2312 14.9366 11.7808 14.8904 12.3597C14.8382 13.0135 14.5548 13.6273 14.091 14.0911C13.6272 14.5548 13.0134 14.8382 12.3596 14.8905C11.7807 14.9367 11.2311 15.1644 10.7891 15.5412C10.2899 15.9664 9.65564 16.1999 8.99992 16.1999C8.34421 16.1999 7.70992 15.9664 7.21072 15.5412C6.76874 15.1644 6.21916 14.9367 5.64022 14.8905C4.98643 14.8382 4.37263 14.5548 3.90886 14.0911C3.44509 13.6273 3.16167 13.0135 3.10942 12.3597C3.0632 11.7808 2.83549 11.2312 2.45872 10.7892C2.03355 10.29 1.80005 9.65571 1.80005 9C1.80005 8.34428 2.03355 7.70999 2.45872 7.2108C2.83549 6.76882 3.0632 6.21923 3.10942 5.6403C3.16167 4.98651 3.44509 4.37271 3.90886 3.90894C4.37263 3.44517 4.98643 3.16175 5.64022 3.1095ZM12.3362 7.8363C12.5002 7.66656 12.5909 7.43921 12.5888 7.20324C12.5868 6.96726 12.4921 6.74153 12.3253 6.57466C12.1584 6.40779 11.9327 6.31314 11.6967 6.31109C11.4607 6.30904 11.2334 6.39976 11.0636 6.5637L8.09992 9.5274L6.93622 8.3637C6.76648 8.19976 6.53914 8.10904 6.30316 8.11109C6.06718 8.11314 5.84145 8.20779 5.67459 8.37466C5.50772 8.54153 5.41307 8.76726 5.41102 9.00324C5.40896 9.23921 5.49968 9.46656 5.66362 9.6363L7.46362 11.4363C7.6324 11.605 7.86128 11.6998 8.09992 11.6998C8.33857 11.6998 8.56745 11.605 8.73622 11.4363L12.3362 7.8363Z" fill="#45C42C"/>
</svg>
